<?xml version="1.0" encoding="UTF-8" standalone="no"?>
<!-- Created with Inkscape (http://www.inkscape.org/) -->

<svg
   width="80"
   height="160"
   viewBox="0 0 21.166665 42.333333"
   version="1.1"
   id="svg1"
   inkscape:version="1.3.2 (091e20e, 2023-11-25, custom)"
   sodipodi:docname="dpfregen.svg"
   xml:space="preserve"
   inkscape:export-filename="dpfregen.jpg"
   inkscape:export-xdpi="96"
   inkscape:export-ydpi="96"
   xmlns:inkscape="http://www.inkscape.org/namespaces/inkscape"
   xmlns:sodipodi="http://sodipodi.sourceforge.net/DTD/sodipodi-0.dtd"
   xmlns="http://www.w3.org/2000/svg"
   xmlns:svg="http://www.w3.org/2000/svg"><sodipodi:namedview
     id="namedview1"
     pagecolor="#ffffff"
     bordercolor="#000000"
     borderopacity="0.25"
     inkscape:showpageshadow="2"
     inkscape:pageopacity="0.0"
     inkscape:pagecheckerboard="0"
     inkscape:deskcolor="#d1d1d1"
     inkscape:document-units="mm"
     inkscape:zoom="4.1373683"
     inkscape:cx="16.677268"
     inkscape:cy="27.916297"
     inkscape:window-width="1920"
     inkscape:window-height="1017"
     inkscape:window-x="1912"
     inkscape:window-y="-8"
     inkscape:window-maximized="1"
     inkscape:current-layer="layer1"
     inkscape:export-bgcolor="#ffffff00" /><defs
     id="defs1" /><g
     inkscape:label="Layer 1"
     inkscape:groupmode="layer"
     id="layer1"
     transform="translate(-2.8253524,-15.562002)"><path
       style="fill:#ffff00;stroke-width:0.741837"
       d="m 11.30491,42.326535 c -1.122871,-0.0026 -1.4210122,-0.0066 -1.4219358,-0.0193 -0.00229,-0.03128 0.00336,-1.093628 0.00582,-1.096099 0.00138,-0.0014 0.6676658,9.26e-4 1.4806308,0.0053 l 1.478119,0.0078 v 0.54806 0.548061 l -0.02887,0.0077 c -0.01587,0.0042 -0.04329,0.0064 -0.06094,0.0047 -0.01764,-0.0016 -0.671418,-0.0045 -1.452839,-0.0063 z m 4.788275,-0.762223 c -0.282838,-0.02662 -0.568658,-0.109468 -0.837529,-0.24278 -0.08971,-0.04448 -0.163102,-0.08559 -0.163102,-0.09136 0,-0.01022 0.04175,-0.08401 0.124028,-0.219157 0.02235,-0.03672 0.06474,-0.110047 0.09419,-0.162951 0.02945,-0.0529 0.05735,-0.09909 0.06199,-0.102629 0.0098,-0.0075 0.02804,-0.0372 0.06663,-0.108415 0.0151,-0.02786 0.06776,-0.118788 0.117031,-0.202051 0.08143,-0.137609 0.112605,-0.171017 0.131322,-0.140734 0.0036,0.0059 0.04581,0.0268 0.09376,0.04654 0.04795,0.01973 0.110271,0.04623 0.138493,0.05888 0.07643,0.03427 0.275061,0.06353 0.431181,0.06353 0.308967,0 0.608375,-0.109998 0.8602,-0.316024 0.223838,-0.183129 0.376648,-0.437587 0.454041,-0.756072 0.03284,-0.135152 0.03019,-0.440753 -0.005,-0.579519 -0.123233,-0.485452 -0.449089,-0.840509 -0.919348,-1.001735 -0.256033,-0.08778 -0.574676,-0.08792 -0.831744,-3.78e-4 -0.06233,0.02123 -0.120189,0.03597 -0.128558,0.03276 -0.0083,-0.0032 -0.04358,-0.07147 -0.07824,-0.151689 -0.03466,-0.08022 -0.07912,-0.181743 -0.09881,-0.225611 -0.01968,-0.04386 -0.05099,-0.116029 -0.06958,-0.160357 -0.04751,-0.113333 -0.143551,-0.327862 -0.173017,-0.38649 -0.01363,-0.02713 -0.02478,-0.05443 -0.02478,-0.06068 0,-0.01733 0.08798,-0.05848 0.21377,-0.09999 0.101389,-0.03345 0.156807,-0.04748 0.363517,-0.09202 0.03175,-0.0068 0.142931,-0.01837 0.247066,-0.02561 0.41077,-0.02858 0.811776,0.04462 1.196152,0.21834 0.09413,0.04254 0.324439,0.177494 0.392985,0.230276 0.0327,0.02517 0.07257,0.05443 0.08861,0.06501 0.08452,0.05575 0.276912,0.242263 0.403607,0.391272 0.135808,0.159724 0.315671,0.463869 0.390704,0.660673 0.01479,0.0388 0.03179,0.0821 0.03778,0.09621 0.02147,0.05064 0.05211,0.169622 0.08589,0.333544 0.03121,0.151457 0.0345,0.194454 0.03573,0.468244 0.0015,0.330244 -0.01239,0.437449 -0.09225,0.712901 -0.04618,0.15929 -0.165965,0.437626 -0.236795,0.550227 -0.34043,0.541195 -0.779151,0.892989 -1.350005,1.082516 -0.347658,0.115424 -0.652487,0.149892 -1.019875,0.115319 z m -5.683728,-0.973986 c -0.116097,-0.01254 -0.166468,-0.02816 -0.260752,-0.08089 -0.1623876,-0.09081 -0.2866257,-0.236576 -0.3434216,-0.402922 -0.023414,-0.06858 -0.029422,-0.114411 -0.02976,-0.227036 -2.412e-4,-0.08035 0.00685,-0.165972 0.016486,-0.198844 0.085232,-0.290966 0.3431216,-0.508066 0.6327486,-0.532669 0.36044,-0.03062 0.671984,0.184951 0.772674,0.534643 0.02626,0.09121 0.02735,0.290101 0.0021,0.373499 -0.03386,0.111582 -0.0941,0.220321 -0.166223,0.300014 -0.164039,0.181269 -0.376228,0.260934 -0.623798,0.234204 z m 1.726106,0.0056 c -0.06397,-0.0095 -0.161992,-0.04418 -0.251394,-0.08885 -0.150701,-0.07529 -0.295048,-0.257058 -0.350697,-0.441624 -0.02641,-0.08758 -0.0276,-0.27781 -0.0024,-0.37472 0.05072,-0.194721 0.200033,-0.381179 0.376049,-0.469593 0.114164,-0.05734 0.185114,-0.0724 0.337447,-0.07157 0.135838,7.35e-4 0.155633,0.004 0.2498,0.04242 0.404413,0.164546 0.57712,0.60234 0.392839,0.995798 -0.06441,0.137512 -0.195121,0.271458 -0.326228,0.334289 -0.05016,0.02403 -0.103184,0.0437 -0.117848,0.0437 -0.01467,0 -0.03214,0.0053 -0.03885,0.01167 -0.01404,0.01344 -0.211479,0.02701 -0.268759,0.01847 z m 3.778022,-1.010833 c -0.04586,-0.0092 -0.16132,-0.02665 -0.256573,-0.03878 -0.09525,-0.01212 -0.196277,-0.02723 -0.2245,-0.03359 -0.02822,-0.0064 -0.160999,-0.02683 -0.295057,-0.04552 -0.134059,-0.01868 -0.275495,-0.0392 -0.314301,-0.04558 -0.0388,-0.0064 -0.108081,-0.01673 -0.153944,-0.02299 -0.04586,-0.0062 -0.164206,-0.02333 -0.262986,-0.03791 -0.09878,-0.01459 -0.240216,-0.03544 -0.314301,-0.04633 -0.07409,-0.01089 -0.183769,-0.02783 -0.243743,-0.03765 -0.05997,-0.0098 -0.178318,-0.02725 -0.262986,-0.03874 -0.08467,-0.01149 -0.178148,-0.02629 -0.207732,-0.0329 -0.02959,-0.0066 -0.07577,-0.01209 -0.102628,-0.0122 -0.09505,-3.82e-4 -0.09591,-0.007 -0.04332,-0.333347 0.01535,-0.09525 0.03303,-0.213596 0.0393,-0.262986 0.0063,-0.04939 0.02329,-0.164207 0.03781,-0.255149 0.01453,-0.09094 0.02641,-0.182047 0.02641,-0.202453 0,-0.02175 0.0082,-0.04028 0.01998,-0.04477 0.01098,-0.0042 0.107684,0.0053 0.214879,0.02112 0.107196,0.01584 0.229539,0.03322 0.271873,0.03863 0.04234,0.0054 0.137587,0.01951 0.211672,0.03135 0.07408,0.01183 0.192429,0.02941 0.262986,0.03906 0.07056,0.0096 0.24663,0.03582 0.391272,0.05818 0.144643,0.02235 0.30051,0.04524 0.346372,0.05088 0.07528,0.0092 0.303554,0.04417 0.506731,0.0775 0.04234,0.007 0.17511,0.02691 0.295057,0.04437 0.119948,0.01745 0.244065,0.03639 0.275815,0.04207 l 0.05773,0.01033 -0.004,0.05728 c -0.0022,0.0315 -0.01197,0.109232 -0.02184,0.172733 -0.0099,0.0635 -0.0209,0.138549 -0.02451,0.166772 -0.0053,0.04198 -0.04591,0.312319 -0.09518,0.634866 -0.01023,0.06702 -0.01538,0.06883 -0.130392,0.04575 z m 3.054578,-0.849587 c -0.0077,-0.04819 -0.02345,-0.162659 -0.03479,-0.254383 -0.01135,-0.09173 -0.02495,-0.201409 -0.03024,-0.243744 -0.0053,-0.04234 -0.02254,-0.168039 -0.03836,-0.279345 -0.01581,-0.111306 -0.0255,-0.210888 -0.0215,-0.221294 0.0042,-0.01098 0.02376,-0.01892 0.04656,-0.01892 0.02162,0 0.06002,-0.0087 0.08535,-0.01925 0.02533,-0.01059 0.05567,-0.01925 0.06743,-0.01925 0.03363,0 0.230645,-0.08542 0.315457,-0.136764 0.181001,-0.109589 0.277641,-0.192775 0.392542,-0.337895 0.0419,-0.05292 0.0814,-0.102718 0.0878,-0.110668 0.02265,-0.02817 0.129019,-0.245442 0.129019,-0.263522 0,-0.01011 0.005,-0.02385 0.01105,-0.03055 0.01079,-0.01189 0.02251,-0.05123 0.05992,-0.200952 0.0519,-0.207748 0.0325,-0.509395 -0.04809,-0.747724 -0.118907,-0.351627 -0.361267,-0.631461 -0.693924,-0.801219 -0.2156,-0.110022 -0.359475,-0.148189 -0.624643,-0.165704 l -0.121872,-0.0081 -0.0088,-0.141115 c -0.0048,-0.07761 -0.01496,-0.227706 -0.02251,-0.333543 -0.02796,-0.392097 -0.03883,-0.599677 -0.03196,-0.610778 0.0096,-0.01549 0.298337,-0.01444 0.451837,0.0016 0.362334,0.03798 0.793044,0.195303 1.099547,0.401624 0.200303,0.134833 0.501156,0.411712 0.601835,0.553878 0.182999,0.258407 0.302713,0.466446 0.361721,0.628601 0.06148,0.168961 0.113029,0.360263 0.148632,0.551629 0.01087,0.05846 0.01663,0.199507 0.01649,0.404102 -2.4e-4,0.336375 -0.004,0.364596 -0.08768,0.673502 -0.152865,0.563751 -0.537276,1.089161 -1.03915,1.420298 -0.124958,0.08245 -0.304077,0.178633 -0.412359,0.221433 -0.04939,0.01952 -0.115778,0.04581 -0.147529,0.05841 -0.07519,0.02985 -0.347128,0.0985 -0.431618,0.108966 l -0.066,0.0082 z m -8.57729,-0.09015 c -0.148193,-0.01966 -0.29166,-0.09403 -0.4049822,-0.20994 -0.2798441,-0.286239 -0.2858302,-0.728751 -0.013658,-1.009651 0.084911,-0.08763 0.1829392,-0.149064 0.3012392,-0.188777 0.124374,-0.04175 0.32106,-0.04511 0.433727,-0.0074 0.207202,0.06935 0.348922,0.191687 0.44428,0.383503 l 0.05955,0.119787 0.0051,0.164356 c 0.0045,0.14278 0.0015,0.175262 -0.02253,0.247436 -0.06426,0.19311 -0.202938,0.351586 -0.379406,0.433579 -0.148645,0.06907 -0.267031,0.08783 -0.423344,0.0671 z m 1.712618,-0.0032 c -0.262601,-0.04948 -0.485221,-0.252648 -0.564516,-0.515218 -0.0344,-0.113902 -0.03512,-0.300731 -0.0015,-0.397502 0.08866,-0.255424 0.232563,-0.406584 0.469262,-0.492913 0.09,-0.03283 0.105632,-0.03458 0.259836,-0.02917 0.162042,0.0057 0.165493,0.0065 0.278668,0.06099 0.199061,0.09594 0.351328,0.278154 0.398039,0.476321 0.04104,0.174139 0.02159,0.347272 -0.05698,0.507171 -0.08283,0.168557 -0.235397,0.303958 -0.408833,0.362837 -0.09139,0.03102 -0.281083,0.04497 -0.373949,0.02747 z M 9.2555414,38.370934 c -0.1595895,-0.02429 -0.4647517,-0.06664 -0.6029443,-0.08368 -0.1482853,-0.01828 -0.2029397,-0.02548 -0.4746582,-0.06252 -0.081141,-0.01106 -0.1879391,-0.02537 -0.2373292,-0.03178 -0.04939,-0.0065 -0.1533018,-0.02074 -0.2309149,-0.03182 -0.077613,-0.01108 -0.2132754,-0.02876 -0.3014721,-0.03928 -0.088197,-0.01053 -0.1892219,-0.02443 -0.2245005,-0.03089 -0.035278,-0.0065 -0.1189852,-0.01849 -0.1860147,-0.0267 -0.06703,-0.0082 -0.1507361,-0.01998 -0.1860147,-0.02615 -0.035279,-0.0061 -0.1189853,-0.01743 -0.1860148,-0.02501 -0.06703,-0.0076 -0.1709411,-0.02202 -0.2309148,-0.03208 -0.059974,-0.01006 -0.2302733,-0.03311 -0.3784437,-0.05123 -0.2785365,-0.03405 -0.3341024,-0.04694 -0.3233315,-0.07501 0.00348,-0.009 0.030125,-0.197977 0.059228,-0.419838 0.029103,-0.221862 0.06236,-0.457513 0.073904,-0.523669 l 0.020989,-0.120285 0.078191,0.0087 c 0.210338,0.02331 0.4146473,0.05052 0.5849206,0.0779 0.024695,0.004 0.1112881,0.01585 0.1924291,0.0264 0.1543499,0.02007 0.2344594,0.03079 0.4682439,0.06272 0.077613,0.0106 0.2710042,0.03664 0.4297581,0.05787 0.158754,0.02123 0.3290537,0.04428 0.3784438,0.0512 0.04939,0.0069 0.1619611,0.02164 0.2501578,0.03269 0.088197,0.01105 0.2151997,0.02854 0.2822292,0.03888 0.167518,0.02584 0.2831784,0.04216 0.4041009,0.05703 0.056445,0.007 0.1574711,0.0209 0.2245005,0.03101 0.06703,0.01012 0.176714,0.02508 0.2437435,0.03323 0.06703,0.0082 0.1308322,0.01737 0.1417841,0.02045 0.021692,0.0061 0.022683,-0.0095 -0.018708,0.294143 -0.011543,0.08467 -0.029516,0.223218 -0.03994,0.307887 -0.01619,0.131502 -0.034295,0.257643 -0.06491,0.452208 -0.00733,0.04657 -0.013994,0.04783 -0.1465123,0.02766 z M 5.9019722,36.63705 c -0.025927,-0.09241 -0.074383,-0.294715 -0.1421135,-0.593323 -0.019204,-0.08467 -0.042698,-0.182808 -0.052207,-0.218087 -0.020247,-0.07512 -0.056947,-0.22946 -0.056947,-0.239499 0,-0.0067 0.2282509,-0.06309 0.6735015,-0.166247 0.1199475,-0.02779 0.2354049,-0.05558 0.2565721,-0.06175 0.021167,-0.0061 0.1799211,-0.04366 0.3527865,-0.08329 0.1728654,-0.03964 0.3316193,-0.07739 0.3527866,-0.08389 0.021167,-0.0066 0.1308517,-0.03298 0.2437435,-0.05884 0.3264817,-0.07478 0.4491641,-0.104005 0.6478444,-0.154312 0.038806,-0.0098 0.1600367,-0.03888 0.2694005,-0.06456 0.1093639,-0.02568 0.2450263,-0.05787 0.3014722,-0.07154 0.056445,-0.01367 0.1170609,-0.02765 0.1347003,-0.0311 0.017639,-0.0035 0.119873,-0.02684 0.2271859,-0.05202 0.1073129,-0.02517 0.2031877,-0.04266 0.213055,-0.03888 0.00987,0.0038 0.021445,0.02326 0.025728,0.04326 0.00428,0.02 0.0404,0.17493 0.080259,0.344267 0.039859,0.169338 0.077127,0.328092 0.082817,0.352787 0.00569,0.02469 0.024695,0.105515 0.042231,0.1796 0.017537,0.07409 0.028098,0.138375 0.023469,0.142867 -0.00463,0.0045 -0.074804,0.02344 -0.1559451,0.04211 -0.2266614,0.05216 -0.5456051,0.128514 -0.7568876,0.181202 -0.074085,0.01848 -0.1606783,0.03838 -0.192429,0.04422 -0.031751,0.0059 -0.1789589,0.03992 -0.3271293,0.07572 -0.3353666,0.08104 -0.5423948,0.130568 -0.7568876,0.181077 -0.091724,0.0216 -0.2360463,0.05585 -0.3207149,0.07611 -0.084669,0.02026 -0.2289906,0.05458 -0.3207151,0.07625 -0.091724,0.02168 -0.3127281,0.07417 -0.491119,0.116655 -0.1783911,0.04248 -0.3301102,0.07725 -0.3371534,0.07725 -0.00704,0 -0.014831,-0.0072 -0.017305,-0.01604 z M 10.37163,36.401161 c -0.162447,-0.03264 -0.288879,-0.102479 -0.4013182,-0.221671 -0.1345639,-0.142645 -0.2009075,-0.301711 -0.20109,-0.482135 -2.121e-4,-0.209665 0.068071,-0.381898 0.2057337,-0.518932 0.1682185,-0.167449 0.3191455,-0.225366 0.5628665,-0.215991 0.137869,0.0053 0.15476,0.0089 0.244323,0.0519 0.093,0.04466 0.208894,0.123846 0.239238,0.163466 0.0081,0.01059 0.03003,0.03656 0.04871,0.05773 0.04322,0.04896 0.117136,0.200696 0.13436,0.275815 0.01959,0.08543 0.01664,0.291419 -0.0052,0.363419 -0.03386,0.111591 -0.09704,0.218876 -0.177574,0.301537 -0.155068,0.159157 -0.280666,0.217421 -0.486996,0.225917 -0.07204,0.0029 -0.145406,0.0025 -0.163045,-0.001 z m 1.698734,-0.01005 c -0.223132,-0.05082 -0.417043,-0.217785 -0.510318,-0.439397 -0.04385,-0.104173 -0.0563,-0.192816 -0.04564,-0.324922 0.02164,-0.268241 0.16366,-0.474521 0.415116,-0.602944 l 0.113035,-0.05773 h 0.181202 c 0.162152,0 0.189296,0.0033 0.258174,0.03115 0.432882,0.175144 0.609119,0.663103 0.379627,1.051088 -0.02238,0.03783 -0.04927,0.07823 -0.05977,0.0898 -0.1117,0.12303 -0.204866,0.188543 -0.333555,0.234548 -0.09686,0.03463 -0.287882,0.04347 -0.397872,0.01841 z m 3.503263,0.0098 c -0.192942,-0.02144 -0.555916,-0.112191 -0.567289,-0.14183 -0.0034,-0.009 0.02862,-0.113103 0.07129,-0.231317 0.07834,-0.217042 0.269001,-0.752967 0.278424,-0.7826 0.0068,-0.02142 0.02272,-0.02036 0.128033,0.0085 0.04925,0.01349 0.154222,0.03126 0.233275,0.03947 0.121893,0.01267 0.163802,0.01177 0.275815,-0.0059 0.07265,-0.01145 0.172285,-0.03271 0.221422,-0.04724 0.189092,-0.05592 0.415478,-0.191341 0.563034,-0.336809 0.0831,-0.08193 0.201112,-0.244263 0.243693,-0.335236 0.01969,-0.04205 0.04329,-0.0909 0.05246,-0.108539 0.05457,-0.104979 0.097,-0.328637 0.097,-0.511354 -7e-6,-0.437165 -0.205093,-0.844956 -0.554484,-1.102533 -0.102756,-0.07576 -0.308028,-0.175663 -0.438737,-0.213541 -0.220296,-0.06384 -0.540667,-0.06493 -0.746488,-0.0025 -0.124938,0.03787 -0.282514,0.109089 -0.342336,0.154717 -0.02393,0.01825 -0.04936,0.03318 -0.05649,0.03318 -0.0072,0 -0.06974,-0.08515 -0.139111,-0.189221 -0.06937,-0.104073 -0.129678,-0.192109 -0.134021,-0.195636 -0.0044,-0.0035 -0.04268,-0.05837 -0.0852,-0.121871 -0.04252,-0.06351 -0.119838,-0.177948 -0.171826,-0.254324 -0.105826,-0.155468 -0.105971,-0.157962 -0.01222,-0.210343 0.03161,-0.01766 0.08922,-0.05059 0.128027,-0.07316 0.0388,-0.02257 0.122514,-0.06304 0.186015,-0.08991 0.0635,-0.02688 0.132776,-0.05634 0.153943,-0.06547 0.207296,-0.08947 0.537802,-0.146759 0.847855,-0.146953 0.398692,-2.49e-4 0.731751,0.07914 1.108507,0.264231 0.237732,0.116791 0.408581,0.238989 0.625882,0.447651 0.439407,0.421942 0.688953,0.969116 0.734254,1.60999 0.01802,0.254875 -0.01305,0.594532 -0.07217,0.78896 -0.06583,0.216525 -0.07474,0.24431 -0.08422,0.262985 -0.0053,0.01059 -0.0218,0.04811 -0.0365,0.08338 -0.237394,0.569796 -0.769413,1.082798 -1.358339,1.309785 -0.0466,0.01796 -0.09626,0.03749 -0.110369,0.04341 -0.0732,0.03068 -0.202409,0.06368 -0.384859,0.09828 -0.100724,0.0191 -0.545248,0.03391 -0.654257,0.02179 z m -2.206156,-1.482265 c -0.0031,-0.0092 -0.0177,-0.08881 -0.03234,-0.177006 -0.01464,-0.0882 -0.03809,-0.226745 -0.05209,-0.307885 -0.014,-0.08114 -0.03429,-0.199486 -0.04507,-0.262987 -0.01079,-0.0635 -0.02472,-0.135663 -0.03096,-0.160357 -0.0062,-0.02469 -0.0152,-0.07179 -0.01991,-0.104661 l -0.0086,-0.05976 0.06863,-0.01418 c 0.08246,-0.01703 0.257141,-0.04706 0.415004,-0.07136 0.0635,-0.0098 0.147208,-0.02431 0.186014,-0.03229 0.0388,-0.008 0.0821,-0.01681 0.09622,-0.01961 0.03046,-0.006 0.364652,-0.06493 0.519558,-0.09158 0.152216,-0.02618 0.232006,-0.04039 0.2694,-0.04794 0.05527,-0.01118 0.401024,-0.07364 0.468245,-0.08458 0.144931,-0.02361 0.348276,-0.06031 0.684418,-0.123528 0.117753,-0.02214 0.131552,-0.01781 0.138256,0.04342 0.0022,0.02004 0.01893,0.119861 0.03719,0.221824 0.03826,0.213639 0.08854,0.504243 0.117135,0.676938 0.01088,0.06573 0.01626,0.123044 0.01195,0.127353 -0.0043,0.0043 -0.08427,0.02141 -0.177678,0.038 -0.283565,0.05036 -0.368844,0.06557 -0.522628,0.09322 -0.08114,0.01459 -0.231236,0.04104 -0.333544,0.05878 -0.102308,0.01774 -0.211993,0.03781 -0.243743,0.0446 -0.03175,0.0068 -0.161641,0.02981 -0.288644,0.05112 -0.127002,0.02133 -0.274211,0.04688 -0.327129,0.05681 -0.05292,0.0099 -0.168376,0.03038 -0.256572,0.04549 -0.0882,0.0151 -0.200768,0.03556 -0.250158,0.04547 -0.04939,0.0099 -0.144643,0.02695 -0.211671,0.03785 -0.06703,0.01092 -0.14071,0.02292 -0.163733,0.02667 -0.02788,0.0045 -0.04377,0.0013 -0.04757,-0.0098 z m -2.98453,-0.740842 c -0.338629,-0.06206 -0.57201,-0.327457 -0.5969534,-0.678862 -0.028175,-0.396946 0.2671104,-0.729735 0.6794074,-0.765693 0.244289,-0.02131 0.512846,0.113856 0.651377,0.327828 0.09496,0.146681 0.10694,0.19099 0.107477,0.397687 l 4.83e-4,0.186015 -0.05274,0.109043 c -0.100848,0.20852 -0.236472,0.327411 -0.460107,0.403337 -0.07492,0.02544 -0.244662,0.03609 -0.328948,0.02064 z m 1.746207,-0.0022 c -0.339275,-0.05496 -0.602526,-0.359945 -0.602846,-0.698408 -1.76e-4,-0.185267 0.0329,-0.296125 0.131101,-0.43936 0.124398,-0.181451 0.371358,-0.310953 0.591248,-0.310041 0.138154,5.74e-4 0.328495,0.06666 0.446049,0.154878 0.119136,0.0894 0.228075,0.263495 0.263278,0.420739 0.05425,0.242341 -0.01571,0.481351 -0.193814,0.662084 -0.176055,0.178641 -0.390728,0.249669 -0.635016,0.210092 z m -1.849224,-1.94513 c -0.2986108,-0.0028 -0.3942615,-0.0074 -0.3976863,-0.01943 -0.00247,-0.0087 -0.00289,-0.256869 -8.92e-4,-0.551446 l 0.00361,-0.535594 h 1.4674173 c 0.80708,0 1.475105,0.0029 1.484502,0.0066 0.01394,0.0053 0.01644,0.10819 0.01362,0.558045 l -0.0035,0.551492 -1.086955,-0.003 c -0.597827,-0.0016 -1.263887,-0.0046 -1.480134,-0.0066 z"
       id="path1" /></g></svg>
