<?xml version="1.0" encoding="UTF-8" standalone="no"?>
<!-- Created with Inkscape (http://www.inkscape.org/) -->

<svg
   width="160"
   height="80"
   viewBox="0 0 42.33333 21.166667"
   version="1.1"
   id="svg1"
   inkscape:version="1.3.2 (091e20e, 2023-11-25, custom)"
   sodipodi:docname="dpfregen.svg"
   xml:space="preserve"
   inkscape:export-filename="dpfregen.jpg"
   inkscape:export-xdpi="96"
   inkscape:export-ydpi="96"
   xmlns:inkscape="http://www.inkscape.org/namespaces/inkscape"
   xmlns:sodipodi="http://sodipodi.sourceforge.net/DTD/sodipodi-0.dtd"
   xmlns="http://www.w3.org/2000/svg"
   xmlns:svg="http://www.w3.org/2000/svg"><sodipodi:namedview
     id="namedview1"
     pagecolor="#ffffff"
     bordercolor="#000000"
     borderopacity="0.25"
     inkscape:showpageshadow="2"
     inkscape:pageopacity="0.0"
     inkscape:pagecheckerboard="0"
     inkscape:deskcolor="#d1d1d1"
     inkscape:document-units="mm"
     inkscape:zoom="4.1373683"
     inkscape:cx="74.806007"
     inkscape:cy="71.663913"
     inkscape:window-width="1920"
     inkscape:window-height="1017"
     inkscape:window-x="1912"
     inkscape:window-y="-8"
     inkscape:window-maximized="1"
     inkscape:current-layer="layer1"
     inkscape:export-bgcolor="#ffffff00" /><defs
     id="defs1" /><g
     inkscape:label="Layer 1"
     inkscape:groupmode="layer"
     id="layer1"
     transform="translate(-2.8253524,-15.562002)"><rect
       style="fill:#000000;stroke-width:2"
       id="rect1"
       width="42.333"
       height="21.166666"
       x="2.8253524"
       y="15.562002" /><path
       style="fill:#ffff00;stroke-width:0.741837"
       d="m 29.749085,28.24911 c -0.0026,1.122871 -0.0066,1.421012 -0.0193,1.421935 -0.03128,0.0023 -1.093628,-0.0034 -1.096099,-0.0058 -0.0014,-0.0014 9.26e-4,-0.667665 0.0053,-1.48063 l 0.0078,-1.478119 h 0.54806 0.548061 l 0.0077,0.02887 c 0.0042,0.01587 0.0064,0.04329 0.0047,0.06094 -0.0016,0.01764 -0.0045,0.671418 -0.0063,1.452839 z m -0.762223,-4.788275 c -0.02662,0.282838 -0.109468,0.568658 -0.24278,0.837529 -0.04448,0.08971 -0.08559,0.163102 -0.09136,0.163102 -0.01022,0 -0.08401,-0.04175 -0.219157,-0.124028 -0.03672,-0.02235 -0.110047,-0.06474 -0.162951,-0.09419 -0.0529,-0.02945 -0.09909,-0.05735 -0.102629,-0.06199 -0.0075,-0.0098 -0.0372,-0.02804 -0.108415,-0.06663 -0.02786,-0.0151 -0.118788,-0.06776 -0.202051,-0.117031 -0.137609,-0.08143 -0.171017,-0.112605 -0.140734,-0.131322 0.0059,-0.0036 0.0268,-0.04581 0.04654,-0.09376 0.01973,-0.04795 0.04623,-0.110271 0.05888,-0.138493 0.03427,-0.07643 0.06353,-0.275061 0.06353,-0.431181 0,-0.308967 -0.109998,-0.608375 -0.316024,-0.8602 -0.183129,-0.223838 -0.437587,-0.376648 -0.756072,-0.454041 -0.135152,-0.03284 -0.440753,-0.03019 -0.579519,0.005 -0.485452,0.123233 -0.840509,0.449089 -1.001735,0.919348 -0.08778,0.256033 -0.08792,0.574676 -3.78e-4,0.831744 0.02123,0.06233 0.03597,0.120189 0.03276,0.128558 -0.0032,0.0083 -0.07147,0.04358 -0.151689,0.07824 -0.08022,0.03466 -0.181743,0.07912 -0.225611,0.09881 -0.04386,0.01968 -0.116029,0.05099 -0.160357,0.06958 -0.113333,0.04751 -0.327862,0.143551 -0.38649,0.173017 -0.02713,0.01363 -0.05443,0.02478 -0.06068,0.02478 -0.01733,0 -0.05848,-0.08798 -0.09999,-0.21377 -0.03345,-0.101389 -0.04748,-0.156807 -0.09202,-0.363517 -0.0068,-0.03175 -0.01837,-0.142931 -0.02561,-0.247066 -0.02858,-0.41077 0.04462,-0.811776 0.21834,-1.196152 0.04254,-0.09413 0.177494,-0.324439 0.230276,-0.392985 0.02517,-0.0327 0.05443,-0.07257 0.06501,-0.08861 0.05575,-0.08452 0.242263,-0.276912 0.391272,-0.403607 0.159724,-0.135808 0.463869,-0.315671 0.660673,-0.390704 0.0388,-0.01479 0.0821,-0.03179 0.09621,-0.03778 0.05064,-0.02147 0.169622,-0.05211 0.333544,-0.08589 0.151457,-0.03121 0.194454,-0.0345 0.468244,-0.03573 0.330244,-0.0015 0.437449,0.01239 0.712901,0.09225 0.15929,0.04618 0.437626,0.165965 0.550227,0.236795 0.541195,0.34043 0.892989,0.779151 1.082516,1.350005 0.115424,0.347658 0.149892,0.652487 0.115319,1.019875 z m -0.973986,5.683728 c -0.01254,0.116097 -0.02816,0.166468 -0.08089,0.260752 -0.09081,0.162387 -0.236576,0.286625 -0.402922,0.343421 -0.06858,0.02341 -0.114411,0.02942 -0.227036,0.02976 -0.08035,2.41e-4 -0.165972,-0.0069 -0.198844,-0.01649 -0.290966,-0.08523 -0.508066,-0.343121 -0.532669,-0.632748 -0.03062,-0.36044 0.184951,-0.671984 0.534643,-0.772674 0.09121,-0.02626 0.290101,-0.02735 0.373499,-0.0021 0.111582,0.03386 0.220321,0.0941 0.300014,0.166223 0.181269,0.164039 0.260934,0.376228 0.234204,0.623798 z m 0.0056,-1.726106 c -0.0095,0.06397 -0.04418,0.161992 -0.08885,0.251394 -0.07529,0.150701 -0.257058,0.295048 -0.441624,0.350697 -0.08758,0.02641 -0.27781,0.0276 -0.37472,0.0024 -0.194721,-0.05072 -0.381179,-0.200033 -0.469593,-0.376049 -0.05734,-0.114164 -0.0724,-0.185114 -0.07157,-0.337447 7.35e-4,-0.135838 0.004,-0.155633 0.04242,-0.2498 0.164546,-0.404413 0.60234,-0.57712 0.995798,-0.392839 0.137512,0.06441 0.271458,0.195121 0.334289,0.326228 0.02403,0.05016 0.0437,0.103184 0.0437,0.117848 0,0.01467 0.0053,0.03214 0.01167,0.03885 0.01344,0.01404 0.02701,0.211479 0.01847,0.268759 z m -1.010833,-3.778022 c -0.0092,0.04586 -0.02665,0.16132 -0.03878,0.256573 -0.01212,0.09525 -0.02723,0.196277 -0.03359,0.2245 -0.0064,0.02822 -0.02683,0.160999 -0.04552,0.295057 -0.01868,0.134059 -0.0392,0.275495 -0.04558,0.314301 -0.0064,0.0388 -0.01673,0.108081 -0.02299,0.153944 -0.0062,0.04586 -0.02333,0.164206 -0.03791,0.262986 -0.01459,0.09878 -0.03544,0.240216 -0.04633,0.314301 -0.01089,0.07409 -0.02783,0.183769 -0.03765,0.243743 -0.0098,0.05997 -0.02725,0.178318 -0.03874,0.262986 -0.01149,0.08467 -0.02629,0.178148 -0.0329,0.207732 -0.0066,0.02959 -0.01209,0.07577 -0.0122,0.102628 -3.82e-4,0.09505 -0.007,0.09591 -0.333347,0.04332 -0.09525,-0.01535 -0.213596,-0.03303 -0.262986,-0.0393 -0.04939,-0.0063 -0.164207,-0.02329 -0.255149,-0.03781 -0.09094,-0.01453 -0.182047,-0.02641 -0.202453,-0.02641 -0.02175,0 -0.04028,-0.0082 -0.04477,-0.01998 -0.0042,-0.01098 0.0053,-0.107684 0.02112,-0.214879 0.01584,-0.107196 0.03322,-0.229539 0.03863,-0.271873 0.0054,-0.04234 0.01951,-0.137587 0.03135,-0.211672 0.01183,-0.07408 0.02941,-0.192429 0.03906,-0.262986 0.0096,-0.07056 0.03582,-0.24663 0.05818,-0.391272 0.02235,-0.144643 0.04524,-0.30051 0.05088,-0.346372 0.0092,-0.07528 0.04417,-0.303554 0.0775,-0.506731 0.007,-0.04234 0.02691,-0.17511 0.04437,-0.295057 0.01745,-0.119948 0.03639,-0.244065 0.04207,-0.275815 l 0.01033,-0.05773 0.05728,0.004 c 0.0315,0.0022 0.109232,0.01197 0.172733,0.02184 0.0635,0.0099 0.138549,0.0209 0.166772,0.02451 0.04198,0.0053 0.312319,0.04591 0.634866,0.09518 0.06702,0.01023 0.06883,0.01538 0.04575,0.130392 z m -0.849587,-3.054578 c -0.04819,0.0077 -0.162659,0.02345 -0.254383,0.03479 -0.09173,0.01135 -0.201409,0.02495 -0.243744,0.03024 -0.04234,0.0053 -0.168039,0.02254 -0.279345,0.03836 -0.111306,0.01581 -0.210888,0.0255 -0.221294,0.0215 -0.01098,-0.0042 -0.01892,-0.02376 -0.01892,-0.04656 0,-0.02162 -0.0087,-0.06002 -0.01925,-0.08535 -0.01059,-0.02533 -0.01925,-0.05567 -0.01925,-0.06743 0,-0.03363 -0.08542,-0.230645 -0.136764,-0.315457 -0.109589,-0.181001 -0.192775,-0.277641 -0.337895,-0.392542 -0.05292,-0.0419 -0.102718,-0.0814 -0.110668,-0.0878 -0.02817,-0.02265 -0.245442,-0.129019 -0.263522,-0.129019 -0.01011,0 -0.02385,-0.005 -0.03055,-0.01105 -0.01189,-0.01079 -0.05123,-0.02251 -0.200952,-0.05992 -0.207748,-0.0519 -0.509395,-0.0325 -0.747724,0.04809 -0.351627,0.118907 -0.631461,0.361267 -0.801219,0.693924 -0.110022,0.2156 -0.148189,0.359475 -0.165704,0.624643 l -0.0081,0.121872 -0.141115,0.0088 c -0.07761,0.0048 -0.227706,0.01496 -0.333543,0.02251 -0.392097,0.02796 -0.599677,0.03883 -0.610778,0.03196 -0.01549,-0.0096 -0.01444,-0.298337 0.0016,-0.451837 0.03798,-0.362334 0.195303,-0.793044 0.401624,-1.099547 0.134833,-0.200303 0.411712,-0.501156 0.553878,-0.601835 0.258407,-0.182999 0.466446,-0.302713 0.628601,-0.361721 0.168961,-0.06148 0.360263,-0.113029 0.551629,-0.148632 0.05846,-0.01087 0.199507,-0.01663 0.404102,-0.01649 0.336375,2.4e-4 0.364596,0.004 0.673502,0.08768 0.563751,0.152865 1.089161,0.537276 1.420298,1.03915 0.08245,0.124958 0.178633,0.304077 0.221433,0.412359 0.01952,0.04939 0.04581,0.115778 0.05841,0.147529 0.02985,0.07519 0.0985,0.347128 0.108966,0.431618 l 0.0082,0.066 z m -0.09015,8.57729 c -0.01966,0.148193 -0.09403,0.29166 -0.20994,0.404982 -0.286239,0.279844 -0.728751,0.28583 -1.009651,0.01366 -0.08763,-0.08491 -0.149064,-0.182939 -0.188777,-0.301239 -0.04175,-0.124374 -0.04511,-0.32106 -0.0074,-0.433727 0.06935,-0.207202 0.191687,-0.348922 0.383503,-0.44428 l 0.119787,-0.05955 0.164356,-0.0051 c 0.14278,-0.0045 0.175262,-0.0015 0.247436,0.02253 0.19311,0.06426 0.351586,0.202938 0.433579,0.379406 0.06907,0.148645 0.08783,0.267031 0.0671,0.423344 z m -0.0032,-1.712618 c -0.04948,0.262601 -0.252648,0.485221 -0.515218,0.564516 -0.113902,0.0344 -0.300731,0.03512 -0.397502,0.0015 -0.255424,-0.08866 -0.406584,-0.232563 -0.492913,-0.469262 -0.03283,-0.09 -0.03458,-0.105632 -0.02917,-0.259836 0.0057,-0.162042 0.0065,-0.165493 0.06099,-0.278668 0.09594,-0.199061 0.278154,-0.351328 0.476321,-0.398039 0.174139,-0.04104 0.347272,-0.02159 0.507171,0.05698 0.168557,0.08283 0.303958,0.235397 0.362837,0.408833 0.03102,0.09139 0.04497,0.281083 0.02747,0.373949 z m -0.271222,2.847949 c -0.02429,0.15959 -0.06664,0.464752 -0.08368,0.602944 -0.01828,0.148286 -0.02548,0.20294 -0.06252,0.474659 -0.01106,0.08114 -0.02537,0.187939 -0.03178,0.237329 -0.0065,0.04939 -0.02074,0.153302 -0.03182,0.230915 -0.01108,0.07761 -0.02876,0.213275 -0.03928,0.301472 -0.01053,0.0882 -0.02443,0.189222 -0.03089,0.2245 -0.0065,0.03528 -0.01849,0.118986 -0.0267,0.186015 -0.0082,0.06703 -0.01998,0.150736 -0.02615,0.186015 -0.0061,0.03528 -0.01743,0.118985 -0.02501,0.186015 -0.0076,0.06703 -0.02202,0.170941 -0.03208,0.230914 -0.01006,0.05997 -0.03311,0.230274 -0.05123,0.378444 -0.03405,0.278537 -0.04694,0.334102 -0.07501,0.323332 -0.009,-0.0035 -0.197977,-0.03012 -0.419838,-0.05923 -0.221862,-0.0291 -0.457513,-0.06236 -0.523669,-0.0739 l -0.120285,-0.02099 0.0087,-0.07819 c 0.02331,-0.210338 0.05052,-0.414648 0.0779,-0.584921 0.004,-0.0247 0.01585,-0.111288 0.0264,-0.192429 0.02007,-0.15435 0.03079,-0.23446 0.06272,-0.468244 0.0106,-0.07761 0.03664,-0.271004 0.05787,-0.429758 0.02123,-0.158754 0.04428,-0.329054 0.0512,-0.378444 0.0069,-0.04939 0.02164,-0.161961 0.03269,-0.250158 0.01105,-0.0882 0.02854,-0.215199 0.03888,-0.282229 0.02584,-0.167518 0.04216,-0.283178 0.05703,-0.404101 0.007,-0.05645 0.0209,-0.157471 0.03101,-0.2245 0.01012,-0.06703 0.02508,-0.176714 0.03323,-0.243744 0.0082,-0.06703 0.01737,-0.130832 0.02045,-0.141784 0.0061,-0.02169 -0.0095,-0.02268 0.294143,0.01871 0.08467,0.01154 0.223218,0.02952 0.307887,0.03994 0.131502,0.01619 0.257643,0.0343 0.452208,0.06491 0.04657,0.0073 0.04783,0.01399 0.02766,0.146512 z M 24.0596,33.652047 c -0.09241,0.02593 -0.294715,0.07438 -0.593323,0.142114 -0.08467,0.0192 -0.182808,0.0427 -0.218087,0.05221 -0.07512,0.02025 -0.22946,0.05695 -0.239499,0.05695 -0.0067,0 -0.06309,-0.228251 -0.166247,-0.673502 -0.02779,-0.119947 -0.05558,-0.235405 -0.06175,-0.256572 -0.0061,-0.02117 -0.04366,-0.179921 -0.08329,-0.352786 -0.03964,-0.172866 -0.07739,-0.33162 -0.08389,-0.352787 -0.0066,-0.02117 -0.03298,-0.130852 -0.05884,-0.243743 -0.07478,-0.326482 -0.104005,-0.449164 -0.154312,-0.647845 -0.0098,-0.03881 -0.03888,-0.160036 -0.06456,-0.2694 -0.02568,-0.109364 -0.05787,-0.245027 -0.07154,-0.301472 -0.01367,-0.05645 -0.02765,-0.117061 -0.0311,-0.134701 -0.0035,-0.01764 -0.02684,-0.119873 -0.05202,-0.227186 -0.02517,-0.107313 -0.04266,-0.203187 -0.03888,-0.213055 0.0038,-0.0099 0.02326,-0.02144 0.04326,-0.02573 0.02,-0.0043 0.17493,-0.0404 0.344267,-0.08026 0.169338,-0.03986 0.328092,-0.07713 0.352787,-0.08282 0.02469,-0.0057 0.105515,-0.0247 0.1796,-0.04223 0.07409,-0.01754 0.138375,-0.0281 0.142867,-0.02347 0.0045,0.0046 0.02344,0.0748 0.04211,0.155945 0.05216,0.226662 0.128514,0.545606 0.181202,0.756888 0.01848,0.07409 0.03838,0.160678 0.04422,0.192429 0.0059,0.03175 0.03992,0.178959 0.07572,0.327129 0.08104,0.335367 0.130568,0.542395 0.181077,0.756888 0.0216,0.09172 0.05585,0.236046 0.07611,0.320715 0.02026,0.08467 0.05458,0.22899 0.07625,0.320715 0.02168,0.09172 0.07417,0.312728 0.116655,0.491119 0.04248,0.178391 0.07725,0.33011 0.07725,0.337153 0,0.007 -0.0072,0.01483 -0.01604,0.01731 z M 23.823711,29.18239 c -0.03264,0.162447 -0.102479,0.288879 -0.221671,0.401318 -0.142645,0.134564 -0.301711,0.200907 -0.482135,0.20109 -0.209665,2.12e-4 -0.381898,-0.06807 -0.518932,-0.205734 -0.167449,-0.168218 -0.225366,-0.319145 -0.215991,-0.562866 0.0053,-0.137869 0.0089,-0.15476 0.0519,-0.244323 0.04466,-0.093 0.123846,-0.208894 0.163466,-0.239238 0.01059,-0.0081 0.03656,-0.03003 0.05773,-0.04871 0.04896,-0.04322 0.200696,-0.117136 0.275815,-0.13436 0.08543,-0.01959 0.291419,-0.01664 0.363419,0.0052 0.111591,0.03386 0.218876,0.09704 0.301537,0.177574 0.159157,0.155068 0.217421,0.280666 0.225917,0.486996 0.0029,0.07204 0.0025,0.145406 -0.001,0.163045 z m -0.01005,-1.698734 c -0.05082,0.223132 -0.217785,0.417043 -0.439397,0.510318 -0.104173,0.04385 -0.192816,0.0563 -0.324922,0.04564 -0.268241,-0.02164 -0.474521,-0.16366 -0.602944,-0.415116 l -0.05773,-0.113035 v -0.181202 c 0,-0.162152 0.0033,-0.189296 0.03115,-0.258174 0.175144,-0.432882 0.663103,-0.609119 1.051088,-0.379627 0.03783,0.02238 0.07823,0.04927 0.0898,0.05977 0.12303,0.1117 0.188543,0.204866 0.234548,0.333555 0.03463,0.09686 0.04347,0.287882 0.01841,0.397872 z m 0.0098,-3.503263 c -0.02144,0.192942 -0.112191,0.555916 -0.14183,0.567289 -0.009,0.0034 -0.113103,-0.02862 -0.231317,-0.07129 -0.217042,-0.07834 -0.752967,-0.269001 -0.7826,-0.278424 -0.02142,-0.0068 -0.02036,-0.02272 0.0085,-0.128033 0.01349,-0.04925 0.03126,-0.154222 0.03947,-0.233275 0.01267,-0.121893 0.01177,-0.163802 -0.0059,-0.275815 -0.01145,-0.07265 -0.03271,-0.172285 -0.04724,-0.221422 -0.05592,-0.189092 -0.191341,-0.415478 -0.336809,-0.563034 -0.08193,-0.0831 -0.244263,-0.201112 -0.335236,-0.243693 -0.04205,-0.01969 -0.0909,-0.04329 -0.108539,-0.05246 -0.104979,-0.05457 -0.328637,-0.097 -0.511354,-0.097 -0.437165,7e-6 -0.844956,0.205093 -1.102533,0.554484 -0.07576,0.102756 -0.175663,0.308028 -0.213541,0.438737 -0.06384,0.220296 -0.06493,0.540667 -0.0025,0.746488 0.03787,0.124938 0.109089,0.282514 0.154717,0.342336 0.01825,0.02393 0.03318,0.04936 0.03318,0.05649 0,0.0072 -0.08515,0.06974 -0.189221,0.139111 -0.104073,0.06937 -0.192109,0.129678 -0.195636,0.134021 -0.0035,0.0044 -0.05837,0.04268 -0.121871,0.0852 -0.06351,0.04252 -0.177948,0.119838 -0.254324,0.171826 -0.155468,0.105826 -0.157962,0.105971 -0.210343,0.01222 -0.01766,-0.03161 -0.05059,-0.08922 -0.07316,-0.128027 -0.02257,-0.0388 -0.06304,-0.122514 -0.08991,-0.186015 -0.02688,-0.0635 -0.05634,-0.132776 -0.06547,-0.153943 -0.08947,-0.207296 -0.146759,-0.537802 -0.146953,-0.847855 -2.49e-4,-0.398692 0.07914,-0.731751 0.264231,-1.108507 0.116791,-0.237732 0.238989,-0.408581 0.447651,-0.625882 0.421942,-0.439407 0.969116,-0.688953 1.60999,-0.734254 0.254875,-0.01802 0.594532,0.01305 0.78896,0.07217 0.216525,0.06583 0.24431,0.07474 0.262985,0.08422 0.01059,0.0053 0.04811,0.0218 0.08338,0.0365 0.569796,0.237394 1.082798,0.769413 1.309785,1.358339 0.01796,0.0466 0.03749,0.09626 0.04341,0.110369 0.03068,0.0732 0.06368,0.202409 0.09828,0.384859 0.0191,0.100724 0.03391,0.545248 0.02179,0.654257 z m -1.482265,2.206156 c -0.0092,0.0031 -0.08881,0.0177 -0.177006,0.03234 -0.0882,0.01464 -0.226745,0.03809 -0.307885,0.05209 -0.08114,0.014 -0.199486,0.03429 -0.262987,0.04507 -0.0635,0.01079 -0.135663,0.02472 -0.160357,0.03096 -0.02469,0.0062 -0.07179,0.0152 -0.104661,0.01991 l -0.05976,0.0086 -0.01418,-0.06863 c -0.01703,-0.08246 -0.04706,-0.257141 -0.07136,-0.415004 -0.0098,-0.0635 -0.02431,-0.147208 -0.03229,-0.186014 -0.008,-0.0388 -0.01681,-0.0821 -0.01961,-0.09622 -0.006,-0.03046 -0.06493,-0.364652 -0.09158,-0.519558 -0.02618,-0.152216 -0.04039,-0.232006 -0.04794,-0.2694 -0.01118,-0.05527 -0.07364,-0.401024 -0.08458,-0.468245 -0.02361,-0.144931 -0.06031,-0.348276 -0.123528,-0.684418 -0.02214,-0.117753 -0.01781,-0.131552 0.04342,-0.138256 0.02004,-0.0022 0.119861,-0.01893 0.221824,-0.03719 0.213639,-0.03826 0.504243,-0.08854 0.676938,-0.117135 0.06573,-0.01088 0.123044,-0.01626 0.127353,-0.01195 0.0043,0.0043 0.02141,0.08427 0.038,0.177678 0.05036,0.283565 0.06557,0.368844 0.09322,0.522628 0.01459,0.08114 0.04104,0.231236 0.05878,0.333544 0.01774,0.102308 0.03781,0.211993 0.0446,0.243743 0.0068,0.03175 0.02981,0.161641 0.05112,0.288644 0.02133,0.127002 0.04688,0.274211 0.05681,0.327129 0.0099,0.05292 0.03038,0.168376 0.04549,0.256572 0.0151,0.0882 0.03556,0.200768 0.04547,0.250158 0.0099,0.04939 0.02695,0.144643 0.03785,0.211671 0.01092,0.06703 0.02292,0.14071 0.02667,0.163733 0.0045,0.02788 0.0013,0.04377 -0.0098,0.04757 z m -0.740842,2.98453 c -0.06206,0.338629 -0.327457,0.57201 -0.678862,0.596953 -0.396946,0.02818 -0.729735,-0.26711 -0.765693,-0.679407 -0.02131,-0.244289 0.113856,-0.512846 0.327828,-0.651377 0.146681,-0.09496 0.19099,-0.10694 0.397687,-0.107477 l 0.186015,-4.83e-4 0.109043,0.05274 c 0.20852,0.100848 0.327411,0.236472 0.403337,0.460107 0.02544,0.07492 0.03609,0.244662 0.02064,0.328948 z m -0.0022,-1.746207 c -0.05496,0.339275 -0.359945,0.602526 -0.698408,0.602846 -0.185267,1.76e-4 -0.296125,-0.0329 -0.43936,-0.131101 -0.181451,-0.124398 -0.310953,-0.371358 -0.310041,-0.591248 5.74e-4,-0.138154 0.06666,-0.328495 0.154878,-0.446049 0.0894,-0.119136 0.263495,-0.228075 0.420739,-0.263278 0.242341,-0.05425 0.481351,0.01571 0.662084,0.193814 0.178641,0.176055 0.249669,0.390728 0.210092,0.635016 z m -1.94513,1.849224 c -0.0028,0.29861 -0.0074,0.394261 -0.01943,0.397686 -0.0087,0.0025 -0.256869,0.0029 -0.551446,8.92e-4 l -0.535594,-0.0036 v -1.467417 c 0,-0.80708 0.0029,-1.475105 0.0066,-1.484502 0.0053,-0.01394 0.10819,-0.01644 0.558045,-0.01362 l 0.551492,0.0035 -0.003,1.086955 c -0.0016,0.597827 -0.0046,1.263887 -0.0066,1.480134 z"
       id="path1" /></g></svg>
